<!-- icon666.com - MILLIONS vector ICONS FREE --><svg viewBox="-136 0 512 512.001" xmlns="http://www.w3.org/2000/svg"><path d="m222.601562 147.113281s19.371094-39.078125-2.671874-61.121093c-2.398438-2.398438-5.351563-4.347657-8.671876-6.074219-13.1875-6.859375-26.34375-13.785157-38.804687-21.894531l-.761719-.496094c-7.316406-4.761719-13.246094-11.574219-16.164062-19.796875-.023438-.058594-.042969-.113281-.0625-.171875-5.398438-15.34375-15.699219-30.058594-35.40625-30.058594-27.386719 0-29.390625 20.375-56.445313 20.375-32.066406 0-39.414062 16.363281-40.082031 27.722656-.855469 14.582032 9.839844 25.914063-5.34375 42.75-18.367188 20.375 2.003906 46.09375 2.003906 46.09375l22.046875 28.722656zm0 0" fill="#ccf49f"></path><path d="m42.238281 173.164062 109.554688-13.359374c-53.339844-32.226563-85.757813-95.46875-87.867188-131.945313-.109375 0-.203125.011719-.3125.011719-32.0625 0-39.410156 16.367187-40.078125 27.726562-.859375 14.582032 9.835938 25.910156-5.34375 42.75-18.371094 20.375 2.003906 46.09375 2.003906 46.09375zm0 0" fill="#b3e59f"></path><path d="m59.96875 75.269531c-2.046875-5.460937-9.050781-6.976562-13.175781-2.855469l-7.074219 7.074219c-4.878906 4.882813-6.089844 12.335938-3.003906 18.507813l22.390625 44.273437 23.546875-7.511719zm0 0" fill="#00F02C"></path><path d="m174.335938 117.222656 29.984374-62.472656c1.980469-3.960938.375-8.773438-3.585937-10.753906l-18.03125-9.015625c-3.835937-1.917969-8.507813-.472657-10.589844 3.277343l-42.867187 78.460938 16.03125 21.542969zm0 0" fill="#d19a6e"></path><path d="m186.324219 36.789062-3.621094-1.808593c-3.839844-1.917969-8.507813-.476563-10.589844 3.277343l-42.867187 78.460938 16.03125 21.542969 5.25-3.800781zm0 0" fill="#c38c66"></path><path d="m143.773438 119.726562-20.875-26.09375c-5.96875-7.460937-17.097657-8.078124-23.855469-1.320312l-4.339844 4.335938c-4.507813 4.511718-7.042969 10.628906-7.042969 17.007812v38.132812l-24.046875 56.113282 80.160157 24.050781 16.03125-48.097656zm0 0" fill="#ffc269"></path><path d="m132.367188 199.285156c-8.242188-5.484375-36.164063-61.65625-16.765626-110.714844-5.578124-1.925781-12.035156-.78125-16.558593 3.742188l-4.335938 4.335938c-4.511719 4.511718-7.042969 10.628906-7.042969 17.007812v38.132812l-24.050781 56.113282 80.164063 24.050781 9.527344-28.589844zm0 0" fill="#ffa95f"></path><path d="m103.695312 155.796875c0 15.496094-12.5625 28.058594-28.058593 28.058594-15.492188 0-28.054688-12.5625-28.054688-28.058594 0-15.492187 12.5625-28.054687 28.054688-28.054687 15.496093 0 28.058593 12.5625 28.058593 28.054687zm0 0" fill="#ff8086"></path><path d="m84.054688 175.4375c-15.496094 0-28.054688-12.558594-28.054688-28.054688 0-5.589843 1.675781-10.769531 4.496094-15.144531-7.75 4.992188-12.914063 13.65625-12.914063 23.5625 0 15.492188 12.5625 28.054688 28.054688 28.054688 9.90625 0 18.570312-5.164063 23.5625-12.914063-4.375 2.816406-9.554688 4.496094-15.144531 4.496094zm0 0" fill="#e5646e"></path><path d="m207.90625 151.789062c0 22.136719-17.945312 40.082032-40.082031 40.082032s-40.082031-17.945313-40.082031-40.082032c0-22.136718 17.945312-40.078124 40.082031-40.078124s40.082031 17.941406 40.082031 40.078124zm0 0" fill="#ff8086"></path><path d="m179.847656 179.847656c-22.136718 0-40.082031-17.945312-40.082031-40.082031 0-7.984375 2.398437-15.382813 6.425781-21.632813-11.074218 7.132813-18.449218 19.507813-18.449218 33.65625 0 22.136719 17.945312 40.082032 40.082031 40.082032 14.148437 0 26.523437-7.375 33.65625-18.449219-6.25 4.027344-13.648438 6.425781-21.632813 6.425781zm0 0" fill="#e5646e"></path><path d="m231.953125 148.628906v339.839844c0 8.851562-7.179687 16.03125-16.03125 16.03125h-192.390625c-8.851562 0-16.03125-7.179688-16.03125-16.03125v-126.871094c0-12.039062 3.441406-23.832031 9.75-34.085937 67.007812-108.933594 168.855469-168.3125 203.046875-186.027344 5.328125-2.757813 11.65625 1.148437 11.65625 7.144531zm0 0" fill="#F04300"></path><path d="m215.921875 504.5c8.851563 0 16.03125-7.179688 16.03125-16.03125v-175.355469c-29.898437-46.960937-65.554687-84.644531-99.585937-113.828125-38.453126 30.765625-81.230469 73.136719-115.117188 128.226563-6.308594 10.253906-9.75 22.046875-9.75 34.085937v126.871094c0 8.851562 7.179688 16.03125 16.03125 16.03125zm0 0" fill="#00F02C"></path><path d="m7.5 148.628906v339.839844c0 8.851562 7.179688 16.03125 16.03125 16.03125h192.386719c8.855469 0 16.035156-7.179688 16.035156-16.03125v-126.871094c0-12.039062-3.445313-23.832031-9.753906-34.085937-67.003907-108.933594-168.851563-168.316407-203.042969-186.027344-5.328125-2.757813-11.65625 1.148437-11.65625 7.144531zm0 0" fill="#F04300"></path><path d="m111.710938 483.644531c-44.273438 0-80.160157-35.890625-80.160157-80.160156v-255.285156c-4.691406-2.621094-8.964843-4.9375-12.394531-6.714844-5.328125-2.757813-11.65625 1.148437-11.65625 7.144531v339.839844c0 8.851562 7.179688 16.03125 16.035156 16.03125h192.386719c8.851563 0 16.03125-7.179688 16.03125-16.03125v-4.824219zm0 0" fill="#00F02C"></path><path d="m233.582031 136.1875c5.929688-13.90625 9.558594-37.589844-8.351562-55.5-5.289063-5.289062-12.21875-8.542969-19.71875-11.550781l5.515625-11.03125c3.824218-7.652344.714844-16.992188-6.9375-20.816407l-18.03125-9.015624c-7.449219-3.726563-16.457032-.9375-20.5 6.34375l-1.882813 3.382812c-.398437-.949219-.78125-1.921875-1.136719-2.929688-10.199218-28.984374-28.730468-35.070312-42.480468-35.070312-16.089844 0-24.917969 6.152344-32.703125 11.582031-7.046875 4.914063-12.613281 8.792969-23.742188 8.792969-42.238281 0-47.085937 26.621094-47.566406 34.78125-.324219 5.515625.679687 10.484375 1.566406 14.871094 1.761719 8.738281 2.929688 14.511718-4.996093 23.300781-13.628907 15.117187-11.328126 31.425781-6.050782 42.335937-4.125 2.902344-6.566406 7.570313-6.566406 12.671876v340.132812c0 12.976562 10.558594 23.53125 23.53125 23.53125h192.386719c12.976562 0 23.535156-10.554688 23.535156-23.53125v-340.136719c0-4.800781-2.167969-9.222656-5.871094-12.144531zm-85.035156 110.390625c29.378906 30.175781 54.90625 63.679687 75.90625 99.621094v71.230469c-51.039063-36.808594-104.3125-60.546876-141.1875-74.269532-32.402344-12.054687-57.328125-18.476562-68.265625-21.035156v-173.792969c0-.113281 0-.28125.234375-.425781.261719-.160156.445313-.070312.546875-.019531 21.210938 10.535156 63.699219 34.496093 109.9375 76.609375 3.0625 2.789062 7.804688 2.570312 10.59375-.492188s2.570312-7.804687-.492188-10.59375c-1.539062-1.402344-3.074218-2.78125-4.601562-4.144531 39.640625-33.070313 74.628906-52.527344 92.457031-61.378906.101563-.046875.285157-.140625.542969.019531.234375.144531.234375.3125.234375.425781v169.3125c-18.890625-29.09375-40.726563-56.4375-65.15625-81.53125-2.890625-2.964843-7.640625-3.027343-10.605469-.140625-2.972656 2.890625-3.035156 7.636719-.144531 10.605469zm-53.382813-132.921875c0-4.421875 1.71875-8.578125 4.84375-11.703125l4.339844-4.339844c1.738282-1.738281 4.042969-2.625 6.503906-2.484375 2.457032.136719 4.65625 1.269532 6.191407 3.1875l16.457031 20.570313c-8.199219 8.554687-13.257812 20.144531-13.257812 32.902343 0 13.476563 5.539062 25.929688 15.148437 34.828126-5.125 4.003906-10.359375 8.238281-15.664063 12.703124-7.089843-5.96875-14.039062-11.519531-20.792968-16.664062 7.65625-6.636719 12.261718-16.347656 12.261718-26.859375 0-12.398437-6.386718-23.328125-16.03125-29.695313zm104.242188 30.125c-13.960938 7.839844-31.847656 18.886719-51.789062 33.570312-7.8125-6.148437-12.375-15.4375-12.375-25.5625 0-17.964843 14.617187-32.578124 32.582031-32.578124 15.050781 0 27.972656 10.199218 31.582031 24.570312zm-140.988281-19.148438-14.992188-29.988281c-1.644531-3.292969-1.003906-7.25 1.597657-9.851562l7.074218-7.074219c.070313-.070312.199219-.199219.476563-.140625.273437.0625.335937.234375.371093.324219l16.105469 42.945312c-3.792969.699219-7.371093 1.992188-10.632812 3.785156zm17.21875 10.609376c11.335937 0 20.558593 9.222656 20.558593 20.558593 0 7.25-3.78125 13.855469-9.847656 17.550781-11.164062-8.003906-21.621094-14.855468-31.027344-20.613281 1.464844-9.984375 9.957032-17.496093 20.316407-17.496093zm138.988281-43.949219c16.789062 16.789062 4.960938 39.777343 3.335938 42.722656-.324219.132813-.644532.28125-.960938.4375-1.28125.636719-2.65625 1.328125-4.101562 2.070313-4.417969-13.125-14.28125-23.480469-26.75-28.667969l12.628906-25.253907c6.640625 2.621094 12.289062 5.132813 15.847656 8.691407zm-35.273438-49.605469 18.027344 9.015625c.253906.128906.359375.4375.230469.695313l-26.46875 52.9375c-1.097656-.074219-2.203125-.125-3.316406-.125-8.085938 0-15.699219 2.03125-22.375 5.601562l-2.660157-3.328125 35.878907-64.585937c.132812-.242188.433593-.332032.683593-.210938zm-148.332031 14.347656c.796875-13.515625 12.066407-20.660156 32.59375-20.660156 15.84375 0 24.597657-6.105469 32.320313-11.488281 6.839844-4.769531 12.746094-8.886719 24.125-8.886719 19.515625 0 26.152344 18.851562 28.332031 25.050781 1.722656 4.902344 3.960937 9.421875 6.648437 13.492188l-22.378906 40.28125-3.90625-4.878907c-.535156-.667968-1.105468-1.304687-1.707031-1.90625l9.472656-37.890624c1.003907-4.019532-1.4375-8.089844-5.457031-9.09375-4.011719-1.003907-8.089844 1.4375-9.09375 5.457031l-8.699219 34.789062c-.527343-.066406-1.054687-.121093-1.589843-.152343-1.863282-.101563-3.71875.027343-5.523438.355468l-9.40625-27.117187c-1.355469-3.910157-5.628906-5.984375-9.542969-4.625-3.914062 1.355469-5.984375 5.628906-4.628906 9.542969l10.265625 29.597656-3.441406 3.441406c-4.789063 4.792969-7.847656 10.851562-8.863282 17.421875l-13.546874-36.128906c-1.859376-4.964844-6.0625-8.597657-11.242188-9.71875-5.179688-1.121094-10.511719.445312-14.257812 4.191406l-7.074219 7.078125c-.265625.265625-.511719.546875-.761719.824219-.300781-2.804688-.835938-5.457031-1.339844-7.953125-.777344-3.832032-1.507812-7.449219-1.296875-11.023438zm-7.261719 47.335938c1.871094-2.070313 3.410157-4.097656 4.6875-6.074219.394532 1.378906.90625 2.738281 1.5625 4.054687l16.78125 33.558594c-2.140624 2.96875-3.832031 6.285156-4.984374 9.859375-6.789063-3.851562-12.761719-7.003906-17.726563-9.5-.164063-.25-.339844-.496093-.539063-.730469-1.382812-1.628906-13.140624-16.347656.21875-31.167968zm192.160157 393.628906h-192.382813c-4.707031 0-8.535156-3.828125-8.535156-8.53125v-150.890625c29.246094 7.234375 124.808594 34.445313 209.453125 98.5v52.390625c0 4.703125-3.828125 8.53125-8.535156 8.53125zm0 0"></path></svg>